@startuml
[*] --> 注文作成中 : 初期状態
注文作成中 --> 注文確認待ち : 商品をカートに追加
注文作成中 --> キャンセル済み : キャンセル
注文確認待ち --> 支払い待ち : 注文を確定
注文確認待ち --> キャンセル済み : キャンセル
キャンセル済み --> [*] : 処理終了
支払い待ち --> 配送準備中 : 支払い完了
支払い待ち --> キャンセル済み : キャンセル
支払い待ち -->支払い失敗 : 支払い失敗
支払い失敗 --> 支払い待ち : 支払いを通知
配送準備中 --> 配送済み : 配送完了
配送済み --> [*] : 処理終了
@enduml